<svg width="93" height="33" viewBox="0 0 93 33" fill="none" xmlns="http://www.w3.org/2000/svg">
<rect x="0.5397" y="7.99507" width="90" height="24" transform="rotate(-4.75168 0.5397 7.99507)" fill="#FFB8EF" stroke="#E7AADA"/>
<path d="M16.5113 23.6654L15.622 14.2528L21.8542 13.664L22.0092 15.3048L17.7671 15.7055L17.979 17.9484L21.8075 17.5867L21.9625 19.2275L18.134 19.5892L18.5013 23.4774L16.5113 23.6654ZM23.6758 22.9885L22.7866 13.5759L26.5002 13.2251C27.211 13.1579 27.8297 13.2277 28.3562 13.4346C28.8855 13.6381 29.3038 13.9587 29.611 14.3965C29.921 14.8309 30.1054 15.3591 30.1641 15.9811C30.2232 16.6061 30.1392 17.1566 29.9121 17.6325C29.6847 18.1053 29.3265 18.4854 28.8374 18.7727C28.3513 19.0598 27.7467 19.2374 27.0236 19.3058L24.5372 19.5407L24.3861 17.9412L26.5508 17.7367C26.9308 17.7008 27.2414 17.6189 27.4828 17.491C27.7242 17.3631 27.8964 17.1892 27.9993 16.9693C28.1052 16.749 28.1435 16.4842 28.1143 16.1747C28.0848 15.8622 27.9971 15.6046 27.8512 15.402C27.7084 15.1991 27.5046 15.0545 27.2399 14.9683C26.9779 14.8786 26.6554 14.8519 26.2724 14.8881L24.9304 15.0149L25.6659 22.8005L23.6758 22.9885ZM28.3544 18.2248L31.0984 22.2873L28.9015 22.4948L26.208 18.4276L28.3544 18.2248ZM31.7631 22.2245L30.8738 12.8119L37.2163 12.2127L37.3713 13.8534L33.0189 14.2646L33.2308 16.5075L37.2569 16.1271L37.4119 17.7679L33.3858 18.1483L33.5982 20.3957L37.969 19.9828L38.124 21.6236L31.7631 22.2245ZM39.2816 21.5142L38.3923 12.1016L44.7348 11.5024L44.8898 13.1431L40.5374 13.5543L40.7493 15.7972L44.7754 15.4168L44.9304 17.0576L40.9043 17.438L41.1166 19.6854L45.4874 19.2725L45.6425 20.9133L39.2816 21.5142ZM55.0289 13.5996C54.9434 13.382 54.8344 13.1929 54.7017 13.0323C54.5688 12.8686 54.4124 12.735 54.2326 12.6315C54.0556 12.5245 53.8568 12.449 53.6362 12.4049C53.4187 12.3606 53.1813 12.3505 52.9239 12.3749C52.4429 12.4203 52.0313 12.5797 51.6893 12.8532C51.3503 13.1263 51.1013 13.5007 50.9422 13.9764C50.7828 14.4489 50.7341 15.0131 50.796 15.6688C50.858 16.3245 51.0102 16.8727 51.2528 17.3135C51.4954 17.7543 51.8104 18.0785 52.1979 18.2861C52.5851 18.4907 53.0269 18.5695 53.5233 18.5226C53.9737 18.48 54.3507 18.364 54.6543 18.1746C54.9607 17.9818 55.1842 17.7304 55.3249 17.4203C55.4687 17.11 55.5217 16.7541 55.4838 16.3527L55.8938 16.3743L53.4672 16.6035L53.3256 15.1052L57.2644 14.7331L57.3764 15.9189C57.4546 16.7462 57.3471 17.4735 57.0539 18.1009C56.7605 18.7253 56.3226 19.2273 55.7402 19.6069C55.1575 19.9834 54.4709 20.209 53.6804 20.2837C52.7979 20.3671 52.0043 20.2458 51.2996 19.9197C50.5946 19.5906 50.0212 19.0837 49.5794 18.399C49.1403 17.7109 48.8739 16.8705 48.7801 15.8778C48.708 15.1148 48.7541 14.4242 48.9182 13.8059C49.0852 13.1842 49.3496 12.6461 49.7117 12.1914C50.0737 11.7368 50.511 11.3755 51.0236 11.1076C51.5362 10.8397 52.1034 10.6764 52.7254 10.6176C53.2586 10.5673 53.7623 10.5985 54.2367 10.7113C54.7108 10.8211 55.1388 11.0002 55.5209 11.2485C55.906 11.4965 56.2303 11.8044 56.4938 12.1721C56.757 12.5367 56.9428 12.9489 57.0511 13.4085L55.0289 13.5996ZM59.9298 10.0668L60.819 19.4795L58.8289 19.6675L57.9397 10.2548L59.9298 10.0668ZM62.0501 19.3632L61.1609 9.95053L67.3931 9.36175L67.5481 11.0025L63.306 11.4033L63.5179 13.6462L67.3464 13.2845L67.5014 14.9252L63.6729 15.2869L64.0402 19.1752L62.0501 19.3632ZM68.122 10.9483L67.967 9.30753L75.6975 8.5772L75.8525 10.218L72.9708 10.4902L73.705 18.2621L71.7379 18.4479L71.0037 10.6761L68.122 10.9483Z" fill="#773E75"/>
</svg>
